<?xml version="1.0" encoding="UTF-8"?>
<svg xmlns="http://www.w3.org/2000/svg" xmlns:xlink="http://www.w3.org/1999/xlink" width="50pt" height="50pt" viewBox="0 0 50 50" version="1.1">
<g id="surface1">
<path style=" stroke:none;fill-rule:nonzero;fill:rgb(0%,0%,0%);fill-opacity:1;" d="M 41.121094 42.144531 C 41.097656 39.105469 41.058594 24.660156 42.472656 19.222656 L 37.09375 14.789062 L 37.09375 41.097656 C 36.78125 41.035156 36.46875 40.972656 36.144531 40.914062 L 36.144531 14.789062 L 29.972656 18.902344 C 30.773438 22.480469 31.144531 34.960938 31.269531 40.28125 C 30.921875 40.253906 30.566406 40.226562 30.210938 40.203125 C 30.21875 38.660156 30.242188 37.105469 30.300781 35.550781 C 30.230469 33.347656 30.136719 30.875 30.015625 28.5 L 28.976562 28.175781 L 28.976562 25.730469 L 29.855469 25.730469 C 29.675781 22.859375 29.445312 20.390625 29.160156 19.121094 L 29.007812 18.453125 L 30.460938 17.488281 L 29.335938 17.128906 L 29.734375 14.96875 L 31.246094 15.449219 L 31.054688 17.089844 L 31.820312 16.578125 C 32.46875 11.101562 33.058594 7.429688 33.058594 7.429688 L 25.699219 1.578125 L 25.699219 40.023438 C 25.457031 40.019531 25.226562 40.023438 24.988281 40.023438 L 24.988281 1.023438 L 16.757812 7.351562 C 16.757812 7.351562 17.042969 9.226562 17.433594 12.3125 L 19.316406 13.710938 L 19.316406 11.960938 L 21.019531 11.316406 L 21.019531 13.355469 L 19.761719 14.042969 L 21.613281 15.421875 L 21.441406 16.074219 C 20.542969 19.421875 19.828125 26.671875 19.355469 32.769531 C 19.5 35.230469 19.585938 37.726562 19.636719 40.203125 C 19.160156 40.242188 18.691406 40.277344 18.238281 40.324219 C 18.570312 34.746094 19.5 20.941406 20.875 15.816406 L 14.386719 10.992188 L 14.386719 40.859375 C 14.066406 40.917969 13.742188 40.972656 13.4375 41.035156 L 13.4375 10.992188 L 7.027344 15.738281 C 8.667969 21.371094 9.214844 38.753906 9.308594 42.136719 C 1.441406 44.785156 0 48.976562 0 48.976562 L 50 48.976562 C 50 48.976562 49.15625 44.792969 41.121094 42.144531 Z M 30.164062 7.519531 L 32.023438 8.398438 L 31.761719 10.671875 L 29.957031 10 Z M 29.957031 11.03125 L 31.660156 11.730469 L 31.296875 14.285156 L 29.734375 13.667969 Z M 19.316406 10.671875 L 18.800781 8.503906 L 20.554688 7.582031 L 21.019531 10 Z M 18.230469 15.835938 L 19.84375 16.703125 L 19.511719 18.316406 L 18.117188 17.902344 Z M 18 18.78125 L 19.34375 19.117188 L 19.1875 20.898438 L 18 20.433594 Z M 17.84375 21.375 L 19.035156 21.855469 L 18.90625 23.867188 L 17.714844 23.292969 Z M 17.59375 24.289062 L 18.644531 24.480469 L 18.515625 26.257812 L 17.59375 25.957031 Z M 17.378906 26.992188 L 18.515625 26.992188 L 18.515625 28.988281 L 17.378906 28.902344 Z M 16.835938 37.058594 L 15.597656 36.75 L 15.597656 34.683594 L 16.835938 35.199219 Z M 16.835938 34.210938 L 15.597656 33.902344 L 15.597656 31.835938 L 16.835938 32.351562 Z M 16.835938 31.363281 L 15.597656 31.054688 L 15.597656 28.988281 L 16.835938 29.507812 Z M 16.835938 28.515625 L 15.597656 28.207031 L 15.597656 26.140625 L 16.835938 26.660156 Z M 16.835938 25.667969 L 15.597656 25.359375 L 15.597656 23.292969 L 16.835938 23.808594 Z M 16.835938 22.824219 L 15.597656 22.511719 L 15.597656 20.445312 L 16.835938 20.960938 Z M 16.835938 19.976562 L 15.597656 19.664062 L 15.597656 17.601562 L 16.835938 18.117188 Z M 16.835938 17.128906 L 15.597656 16.816406 L 15.597656 14.75 L 16.835938 15.269531 Z M 18 37.058594 L 17.1875 37.058594 L 17.1875 35.28125 L 18 35.28125 Z M 18 34.210938 L 17.1875 34.210938 L 17.1875 32.433594 L 18 32.433594 Z M 18 31.363281 L 17.1875 31.363281 L 17.1875 29.585938 L 18 29.585938 Z M 20.554688 22.550781 L 21.601562 21.957031 L 21.796875 24.492188 L 20.558594 24.667969 L 20.558594 22.550781 Z M 22.066406 35.28125 L 21.175781 35.28125 L 21.175781 32.917969 L 22.066406 32.917969 Z M 22.066406 31.757812 L 21.023438 31.914062 L 21.023438 29.316406 L 22.066406 29.121094 Z M 21.019531 28.023438 L 21.019531 25.867188 L 21.796875 25.636719 L 22.066406 27.949219 Z M 23.964844 34.945312 L 22.933594 35.4375 L 22.933594 32.800781 L 23.964844 32.210938 Z M 23.964844 31.175781 L 22.933594 31.753906 L 22.933594 29.121094 L 23.964844 28.4375 Z M 23.964844 27.40625 L 22.933594 27.949219 L 22.933594 25.3125 L 23.964844 24.671875 Z M 23.964844 23.632812 L 22.699219 24.203125 L 22.699219 21.570312 L 23.964844 20.898438 Z M 23.964844 19.863281 L 22.570312 20.433594 L 22.570312 17.800781 L 23.964844 17.128906 Z M 23.964844 16.09375 L 22.570312 16.585938 L 22.570312 13.953125 L 23.964844 13.359375 Z M 23.964844 12.324219 L 22.417969 13.046875 L 22.417969 10.414062 L 23.964844 9.585938 Z M 23.964844 8.554688 L 22.210938 9.226562 L 22.210938 6.589844 L 23.964844 5.816406 Z M 26.871094 5.816406 L 28.691406 6.847656 L 28.691406 9.347656 L 26.871094 8.398438 Z M 27.761719 35.4375 L 26.871094 35.128906 L 26.871094 32.609375 L 27.761719 32.917969 Z M 27.761719 31.757812 L 26.871094 31.429688 L 26.871094 28.226562 L 27.761719 28.792969 Z M 28.035156 27.949219 L 26.871094 27.121094 L 26.871094 24.492188 L 28.035156 25.363281 Z M 28.035156 24.203125 L 26.871094 23.339844 L 26.871094 20.757812 L 28.035156 21.707031 Z M 28.199219 20.269531 L 26.871094 19.605469 L 26.871094 17.023438 L 28.199219 17.773438 Z M 28.332031 16.699219 L 26.871094 15.867188 L 26.871094 13.285156 L 28.332031 14.199219 Z M 28.332031 12.800781 L 26.871094 12.132812 L 26.871094 9.550781 L 28.332031 10.304688 Z M 29.570312 35.4375 L 28.675781 35.128906 L 28.675781 32.609375 L 29.570312 32.917969 Z M 29.738281 31.910156 L 28.792969 31.753906 L 28.792969 29.238281 L 29.738281 29.441406 Z M 39.921875 19.195312 L 41.28125 19.84375 L 41.28125 21.375 L 39.921875 20.601562 Z M 39.652344 28.75 L 40.570312 29.074219 L 40.570312 30.605469 L 39.652344 30.15625 Z M 39.652344 31.222656 L 40.570312 31.546875 L 40.570312 33.078125 L 39.652344 32.628906 Z M 39.652344 33.695312 L 40.570312 34.019531 L 40.570312 35.550781 L 39.652344 35.101562 Z M 38.878906 38.761719 L 37.792969 38.335938 L 37.792969 36.613281 L 38.878906 37.136719 Z M 38.878906 36.449219 L 37.792969 36.023438 L 37.792969 34.300781 L 38.878906 34.828125 Z M 38.878906 34.140625 L 37.792969 33.710938 L 37.792969 31.992188 L 38.878906 32.515625 Z M 38.878906 31.828125 L 37.792969 31.402344 L 37.792969 29.679688 L 38.878906 30.203125 Z M 38.878906 29.515625 L 37.792969 29.089844 L 37.792969 27.367188 L 38.878906 27.890625 Z M 38.878906 27.207031 L 37.792969 26.78125 L 37.792969 25.054688 L 38.878906 25.582031 Z M 38.878906 24.894531 L 37.792969 24.46875 L 37.792969 22.742188 L 38.878906 23.269531 Z M 38.878906 22.582031 L 37.792969 22.15625 L 37.792969 20.433594 L 38.878906 20.957031 Z M 38.878906 20.269531 L 37.792969 19.84375 L 37.792969 18.121094 L 38.878906 18.644531 Z M 40.699219 37.863281 L 39.652344 37.574219 L 39.652344 36.167969 L 40.699219 36.332031 Z M 40.699219 28.28125 L 39.652344 27.683594 L 39.652344 26.277344 L 40.699219 26.753906 Z M 41.007812 25.984375 L 39.652344 25.390625 L 39.652344 23.804688 L 41.007812 24.453125 Z M 41.007812 23.671875 L 39.652344 22.898438 L 39.652344 21.492188 L 41.007812 22.140625 Z M 41.007812 23.671875 "/>
</g>
</svg>
