<?xml version="1.0" encoding="UTF-8"?>
<svg xmlns="http://www.w3.org/2000/svg" xmlns:xlink="http://www.w3.org/1999/xlink" width="50pt" height="50pt" viewBox="0 0 50 50" version="1.1">
<g id="surface1">
<path style=" stroke:none;fill-rule:nonzero;fill:rgb(0%,0%,0%);fill-opacity:1;" d="M 46.125 34.675781 C 45.273438 28.328125 39.824219 23.417969 33.25 23.417969 L 22.085938 23.417969 C 22.265625 22.992188 22.4375 22.558594 22.585938 22.113281 C 22.777344 21.53125 22.875 20.921875 22.875 20.304688 C 22.875 19.835938 22.820312 19.367188 22.710938 18.90625 C 24.046875 18.015625 25.414062 16.886719 26.703125 15.597656 C 28.671875 13.625 30.257812 11.492188 31.171875 9.578125 C 32.53125 6.714844 31.972656 5.265625 31.265625 4.558594 C 30.554688 3.851562 29.109375 3.289062 26.242188 4.648438 C 25.945312 4.789062 25.644531 4.953125 25.339844 5.125 C 25.324219 2.746094 24.625 1.210938 23.296875 0.726562 C 20.46875 -0.296875 17.09375 4.382812 15.226562 9.539062 C 14.710938 10.953125 14.316406 12.398438 14.0625 13.757812 C 8.285156 14.457031 3.5625 18.203125 1.742188 23.710938 C 1.550781 24.289062 1.453125 24.898438 1.453125 25.515625 C 1.453125 28.148438 3.164062 30.59375 5.589844 31.640625 C 4.992188 33.15625 4.6875 34.757812 4.6875 36.414062 C 4.6875 38.386719 5.125 40.304688 5.96875 42.054688 L 3.679688 42.054688 C 1.648438 42.054688 0 43.707031 0 45.734375 C 0 47.761719 1.648438 49.414062 3.679688 49.414062 L 33.25 49.414062 C 36.71875 49.414062 39.984375 48.0625 42.4375 45.605469 C 43.109375 44.933594 43.703125 44.199219 44.203125 43.414062 C 44.625 43.546875 45.0625 43.613281 45.507812 43.613281 C 47.984375 43.613281 50 41.601562 50 39.125 C 50 36.859375 48.3125 34.976562 46.125 34.675781 Z M 17.171875 10.242188 C 19.1875 4.679688 21.882812 2.414062 22.589844 2.671875 C 22.917969 2.789062 23.46875 3.890625 23.203125 6.53125 C 22.199219 7.273438 21.195312 8.148438 20.226562 9.117188 C 18.75 10.589844 17.5 12.144531 16.574219 13.652344 C 16.476562 13.648438 16.21875 13.640625 16.191406 13.640625 C 16.425781 12.539062 16.757812 11.382812 17.171875 10.242188 Z M 42.828125 41.6875 C 42.335938 42.578125 41.714844 43.40625 40.976562 44.144531 C 38.914062 46.210938 36.167969 47.34375 33.25 47.34375 L 21.890625 47.34375 C 21 47.34375 20.28125 46.625 20.28125 45.734375 C 20.28125 44.84375 21 44.125 21.890625 44.125 L 26.566406 44.125 C 27.136719 44.125 27.601562 43.660156 27.601562 43.089844 L 27.601562 41.339844 C 27.601562 38.453125 29.945312 36.109375 32.828125 36.109375 L 34.195312 36.109375 C 34.765625 36.109375 35.226562 35.648438 35.226562 35.078125 C 35.226562 34.507812 34.765625 34.042969 34.195312 34.042969 L 32.828125 34.042969 C 28.804688 34.042969 25.53125 37.316406 25.53125 41.339844 L 25.53125 42.054688 L 21.890625 42.054688 C 19.863281 42.054688 18.210938 43.707031 18.210938 45.734375 C 18.210938 46.3125 18.347656 46.859375 18.585938 47.34375 L 3.679688 47.34375 C 2.789062 47.34375 2.066406 46.625 2.066406 45.734375 C 2.066406 44.84375 2.789062 44.125 3.679688 44.125 L 7.75 44.125 C 7.953125 44.125 8.148438 44.066406 8.328125 43.945312 C 8.804688 43.625 8.929688 42.984375 8.609375 42.511719 C 7.394531 40.710938 6.75 38.601562 6.75 36.414062 C 6.75 34.679688 7.148438 33.023438 7.921875 31.488281 C 8.179688 30.980469 7.976562 30.359375 7.46875 30.101562 C 7.390625 30.0625 7.304688 30.03125 7.226562 30.015625 C 6.1875 29.78125 5.257812 29.175781 4.59375 28.367188 C 3.929688 27.554688 3.519531 26.546875 3.519531 25.515625 C 3.519531 25.121094 3.582031 24.726562 3.707031 24.355469 C 4.5625 21.769531 6.167969 19.59375 8.351562 18.054688 C 10.539062 16.519531 13.195312 15.707031 16.03125 15.707031 C 16.101562 15.707031 16.710938 15.734375 16.9375 15.773438 C 17.382812 15.851562 17.8125 15.632812 18.019531 15.265625 L 18.023438 15.265625 C 18.867188 13.757812 20.171875 12.09375 21.6875 10.578125 C 22.691406 9.574219 23.734375 8.683594 24.753906 7.953125 C 24.773438 7.9375 24.796875 7.921875 24.816406 7.90625 C 25.609375 7.335938 26.394531 6.867188 27.132812 6.515625 C 28.707031 5.765625 29.59375 5.808594 29.804688 6.019531 C 30.015625 6.230469 30.054688 7.117188 29.304688 8.6875 C 28.492188 10.394531 27.050781 12.328125 25.242188 14.132812 C 23.902344 15.476562 22.476562 16.628906 21.113281 17.46875 L 21.125 17.484375 C 20.710938 17.644531 20.457031 18.039062 20.457031 18.453125 C 20.457031 18.574219 20.480469 18.699219 20.523438 18.820312 C 20.710938 19.3125 20.804688 19.8125 20.804688 20.304688 C 20.804688 20.703125 20.742188 21.09375 20.621094 21.46875 C 20.335938 22.335938 19.960938 23.164062 19.507812 23.929688 C 19.21875 24.421875 19.382812 25.054688 19.875 25.34375 C 20.039062 25.4375 20.21875 25.484375 20.398438 25.484375 L 33.25 25.484375 C 39.273438 25.484375 44.179688 30.390625 44.179688 36.414062 C 44.179688 38.972656 42.84375 41.65625 42.828125 41.6875 Z M 45.507812 41.546875 C 45.40625 41.546875 45.304688 41.539062 45.203125 41.527344 C 45.835938 40.050781 46.1875 38.457031 46.238281 36.8125 C 47.21875 37.121094 47.933594 38.039062 47.933594 39.125 C 47.933594 40.460938 46.84375 41.546875 45.507812 41.546875 Z M 45.507812 41.546875 "/>
<path style=" stroke:none;fill-rule:nonzero;fill:rgb(0%,0%,0%);fill-opacity:1;" d="M 11.242188 21.828125 C 11.242188 22.515625 10.683594 23.078125 9.992188 23.078125 C 9.296875 23.078125 8.738281 22.515625 8.738281 21.828125 C 8.738281 21.132812 9.296875 20.574219 9.992188 20.574219 C 10.683594 20.574219 11.242188 21.132812 11.242188 21.828125 Z M 11.242188 21.828125 "/>
<path style=" stroke:none;fill-rule:nonzero;fill:rgb(0%,0%,0%);fill-opacity:1;" d="M 33.25 27.035156 C 32.679688 27.035156 32.214844 27.5 32.214844 28.070312 C 32.214844 28.640625 32.679688 29.101562 33.25 29.101562 C 37.28125 29.101562 40.5625 32.382812 40.5625 36.414062 C 40.5625 36.984375 41.023438 37.449219 41.59375 37.449219 C 42.164062 37.449219 42.628906 36.984375 42.628906 36.414062 C 42.628906 31.242188 38.421875 27.035156 33.25 27.035156 Z M 33.25 27.035156 "/>
</g>
</svg>
